<?xml version="1.0" encoding="UTF-8" standalone="no"?>
<svg
   xmlns:dc="http://purl.org/dc/elements/1.1/"
   xmlns:cc="http://creativecommons.org/ns#"
   xmlns:rdf="http://www.w3.org/1999/02/22-rdf-syntax-ns#"
   xmlns:svg="http://www.w3.org/2000/svg"
   xmlns="http://www.w3.org/2000/svg"
   xmlns:sodipodi="http://sodipodi.sourceforge.net/DTD/sodipodi-0.dtd"
   xmlns:inkscape="http://www.inkscape.org/namespaces/inkscape"
   width="224.97375mm"
   height="222.97351mm"
   viewBox="0 0 224.97375 222.97351"
   version="1.1"
   id="svg8"
   inkscape:version="1.0.2-2 (e86c870879, 2021-01-15)"
   sodipodi:docname="mesa10.svg">
  <defs
     id="defs2" />
  <sodipodi:namedview
     id="base"
     pagecolor="#ffffff"
     bordercolor="#666666"
     borderopacity="1.0"
     inkscape:pageopacity="0.0"
     inkscape:pageshadow="2"
     inkscape:zoom="0.7"
     inkscape:cx="425.34192"
     inkscape:cy="414.78356"
     inkscape:document-units="mm"
     inkscape:current-layer="layer1"
     inkscape:document-rotation="0"
     showgrid="false"
     inkscape:window-width="1920"
     inkscape:window-height="1001"
     inkscape:window-x="-9"
     inkscape:window-y="-9"
     inkscape:window-maximized="1"
     showguides="true"
     inkscape:guide-bbox="true"
     fit-margin-top="2"
     fit-margin-left="2"
     fit-margin-right="2"
     fit-margin-bottom="2"
     lock-margins="true">
    <sodipodi:guide
       position="112.38544,571.04427"
       orientation="0,-1"
       id="guide1551" />
    <sodipodi:guide
       position="-85.674071,571.04428"
       orientation="0,-1"
       id="guide1553" />
    <sodipodi:guide
       position="-53.924071,522.6633"
       orientation="0,-1"
       id="guide1555" />
    <sodipodi:guide
       position="-213.99699,60.587429"
       orientation="1,0"
       id="guide2128" />
    <sodipodi:guide
       position="-129.51931,49.437119"
       orientation="1,0"
       id="guide2134" />
    <sodipodi:guide
       position="-189.9955,44.901409"
       orientation="1,0"
       id="guide2136" />
    <sodipodi:guide
       position="-106.84074,92.526408"
       orientation="0,-1"
       id="guide2138" />
  </sodipodi:namedview>
  <metadata
     id="metadata5">
    <rdf:RDF>
      <cc:Work
         rdf:about="">
        <dc:format>image/svg+xml</dc:format>
        <dc:type
           rdf:resource="http://purl.org/dc/dcmitype/StillImage" />
        <dc:title />
      </cc:Work>
    </rdf:RDF>
  </metadata>
  <g
     inkscape:label="Capa 1"
     inkscape:groupmode="layer"
     id="layer1"
     transform="translate(-88.697882,-251.30885)">
    <path
       id="path928-9"
       style="fill:#ffffff;stroke:#000000;stroke-width:1.5;stroke-miterlimit:0;stroke-opacity:1;paint-order:markers stroke fill;stroke-dasharray:none"
       d="m 232.94861,268.64442 a 15.33097,14.575017 0 0 1 -15.33097,14.57502 15.33097,14.575017 0 0 1 -15.33097,-14.57502 15.33097,14.575017 0 0 1 15.33097,-14.57502 15.33097,14.575017 0 0 1 15.33097,14.57502 z" />
    <path
       id="path928-9-4"
       style="fill:#ffffff;stroke:#000000;stroke-width:1.5211;stroke-miterlimit:0;stroke-opacity:1;paint-order:markers stroke fill"
       d="m 294.28493,184.55219 a 15.33097,14.575017 0 0 1 -15.33097,14.57502 15.33097,14.575017 0 0 1 -15.33097,-14.57502 15.33097,14.575017 0 0 1 15.33097,-14.57501 15.33097,14.575017 0 0 1 15.33097,14.57501 z" />
    <path
       id="path928-9-5"
       style="fill:#ffffff;stroke:#000000;stroke-width:1.5;stroke-miterlimit:0;stroke-opacity:1;paint-order:markers stroke fill;stroke-dasharray:none"
       d="m 290.11202,301.96736 a 15.33097,14.575017 0 0 1 -15.33097,14.57502 15.33097,14.575017 0 0 1 -15.33097,-14.57502 15.33097,14.575017 0 0 1 15.33097,-14.57501 15.33097,14.575017 0 0 1 15.33097,14.57501 z" />
    <path
       id="path928-9-3"
       style="fill:#ffffff;stroke:#000000;stroke-width:1.5;stroke-miterlimit:0;stroke-opacity:1;paint-order:markers stroke fill;stroke-dasharray:none"
       d="m 163.80155,447.52505 a 15.33097,14.575017 0 0 1 -15.33097,14.57502 15.33097,14.575017 0 0 1 -15.33097,-14.57502 15.33097,14.575017 0 0 1 15.33097,-14.57501 15.33097,14.575017 0 0 1 15.33097,14.57501 z" />
    <path
       id="path928-9-0"
       style="fill:#ffffff;stroke:#000000;stroke-width:1.5;stroke-miterlimit:0;stroke-opacity:1;paint-order:markers stroke fill;stroke-dasharray:none"
       d="m 291.86491,421.28544 a 15.33097,14.575017 0 0 1 -15.33097,14.57502 15.33097,14.575017 0 0 1 -15.33097,-14.57502 15.33097,14.575017 0 0 1 15.33097,-14.57501 15.33097,14.575017 0 0 1 15.33097,14.57501 z" />
    <path
       id="path928-9-32"
       style="fill:#ffffff;stroke:#000000;stroke-width:1.5;stroke-miterlimit:0;stroke-opacity:1;paint-order:markers stroke fill;stroke-dasharray:none"
       d="m 237.69955,456.94679 a 15.33097,14.575017 0 0 1 -15.33097,14.57502 15.33097,14.575017 0 0 1 -15.33097,-14.57502 15.33097,14.575017 0 0 1 15.33097,-14.57501 15.33097,14.575017 0 0 1 15.33097,14.57501 z" />
    <path
       id="path928-9-8"
       style="fill:#ffffff;stroke:#000000;stroke-width:1.5;stroke-miterlimit:0;stroke-opacity:1;paint-order:markers stroke fill;stroke-dasharray:none"
       d="m 163.57362,279.64483 a 15.33097,14.575017 0 0 1 -15.33097,14.57502 15.33097,14.575017 0 0 1 -15.33097,-14.57502 15.33097,14.575017 0 0 1 15.33097,-14.57501 15.33097,14.575017 0 0 1 15.33097,14.57501 z" />
    <path
       id="path928-9-7"
       style="fill:#ffffff;stroke:#000000;stroke-width:1.5;stroke-miterlimit:0;stroke-opacity:1;paint-order:markers stroke fill;stroke-dasharray:none"
       d="m 310.91109,361.7232 a 15.33097,14.575017 0 0 1 -15.33096,14.57502 15.33097,14.575017 0 0 1 -15.33097,-14.57502 15.33097,14.575017 0 0 1 15.33097,-14.57501 15.33097,14.575017 0 0 1 15.33096,14.57501 z" />
    <path
       id="path928-9-74"
       style="fill:#ffffff;stroke:#000000;stroke-width:1.5;stroke-miterlimit:0;stroke-opacity:1;paint-order:markers stroke fill;stroke-dasharray:none"
       d="M 122.12038,394.32961 A 15.33097,14.575017 0 0 1 106.7894,408.90463 15.33097,14.575017 0 0 1 91.458432,394.32961 15.33097,14.575017 0 0 1 106.7894,379.7546 a 15.33097,14.575017 0 0 1 15.33098,14.57501 z" />
    <path
       id="path928-9-82"
       style="fill:#ffffff;stroke:#000000;stroke-width:1.5;stroke-miterlimit:0;stroke-opacity:1;paint-order:markers stroke fill;stroke-dasharray:none"
       d="m 122.7576,328.98359 a 15.33097,14.575017 0 0 1 -15.33098,14.57502 15.33097,14.575017 0 0 1 -15.330978,-14.57502 15.33097,14.575017 0 0 1 15.330978,-14.57501 15.33097,14.575017 0 0 1 15.33098,14.57501 z" />
    <path
       id="path2126"
       style="fill:#ffffff;stroke:#000000;stroke-width:1.5;stroke-miterlimit:0;paint-order:markers stroke fill;stroke-dasharray:none"
       d="m 278.314,362.95203 a 80,80 0 0 1 -80,80 80,80 0 0 1 -80,-80 80,80 0 0 1 80,-80 80,80 0 0 1 80,80 z" />
  </g>
</svg>
